<?xml version="1.0" encoding="UTF-8"?>
<svg id="Layer_1" data-name="Layer 1" xmlns="http://www.w3.org/2000/svg" viewBox="0 0 1185.84 507.64">
  <defs>
    <style>
      .cls-1, .cls-2 {
        fill: none;
      }

      .cls-3, .cls-4 {
        fill: #231f20;
      }

      .cls-5 {
        fill: #fff;
      }

      .cls-2 {
        stroke-width: .5px;
      }

      .cls-2, .cls-4 {
        stroke: #231f20;
        stroke-miterlimit: 10;
      }

      .cls-4 {
        stroke-width: .25px;
      }
    </style>
  </defs>
  <g>
    <path class="cls-3" d="M932.73,283.74c-1.42,0-2.76-.06-3.97-.18-12.31-1.19-34.07-11.44-38.82-24.17-2.21-5.93-.71-11.7,4.47-17.15,1.63-1.72,3.39-2.88,4.93-3.91,1.89-1.25,3.38-2.24,3.59-3.61.23-1.46-.87-3.7-3.36-6.85-4.91-6.2-10.58-9.09-17.85-9.09-6.65,0-13.75,2.47-20.62,4.87-3.85,1.34-7.84,2.73-11.63,3.63-8.69,2.06-17.88,3.17-26.77,4.25-6.92.84-14.07,1.71-20.9,3.01-5.61,1.07-11.61,2.68-17.41,4.24-9.21,2.47-18.73,5.03-27.63,5.74-2.69.21-5.47.32-8.26.32-12.57,0-24.3-2.2-35.64-4.32-11.4-2.14-22.16-4.15-33.77-4.15-8.01,0-15.54.98-23.03,3.01-4.92,1.33-9.76,2.99-14.45,4.58-10.5,3.59-21.37,7.3-33.24,7.3-2.02,0-4.04-.11-6.03-.32-5.14-.55-15.69-3.21-18.77-9.39-1.39-2.78-1.11-5.85.84-9.12,4.08-6.82,16.08-9.21,26.67-11.33,4.07-.81,7.91-1.58,10.72-2.51,17.31-5.75,33.52-19.08,41.31-33.97,3.94-7.55,3.86-14.57,3.77-22-.08-7.04-.17-14.32,3.48-21.95.95-1.98,2.48-4.25,4.11-6.65,3.46-5.1,7.38-10.88,5.82-14.37-.84-1.89-3.36-3.13-7.5-3.7-5.02-.69-12.58-1.07-21.29-1.07-15.96,0-36.84,1.31-47.5,4.23-12.65,3.46-33.7,17.41-46.94,31.09-4.92,5.09-8.47,9.88-10.25,13.85-1.99,4.43-2.94,9.31-3.85,14.03-.61,3.16-1.25,6.43-2.19,9.57-.8,2.68-2.14,5.62-3.42,8.47-1.71,3.79-3.49,7.7-4,10.96-.55,3.52.64,8.5,1.9,13.77,1.94,8.1,3.94,16.47.25,21.75-1.83,2.63-4.96,4.21-9.3,4.71-1.63.19-3.29.28-4.95.29-10.96,0-22.22-4.07-33.48-12.11-9.03-6.45-17.95-15.54-25.1-25.58-3.55-4.99-6.94-11.06-10.53-17.48-7.06-12.65-14.37-25.73-23.87-32.38-3.65-2.56-6.94-3.8-10.06-3.8-6.71,0-11.77,5.89-17.13,12.12-2.02,2.35-4.1,4.77-6.32,6.92-1.05,1.02-2.7,2.4-4.61,4-6.21,5.21-16.6,13.93-15.9,18.67.44,2.97,4.64,4.69,7.75,5.73,5.54,1.84,11.92,2.41,18.09,2.95,8.56.76,17.42,1.54,24.7,5.67,3.92,2.22,5.76,4.77,5.49,7.58-.81,8.2-20.56,15.15-24.51,16.46-24.04,7.97-61.45,14.45-85.15,14.76h-.76c-11.9,0-17.8-3.83-24.64-8.27-2.73-1.77-5.55-3.61-9.04-5.43-4.38-2.29-7.86-3.36-10.95-3.36-3.65,0-6.57,1.47-10.28,3.34-2.61,1.31-5.58,2.81-9.38,4.07-7.88,2.62-16.89,3.9-27.56,3.9-11.14,0-22.56-1.37-33.6-2.69-5.97-.72-11.61-1.39-17.13-1.85-4.26-.36-8.7-.38-13-.39-4.9-.02-9.97-.04-14.9-.56-27.81-2.91-44.88-13.33-65.95-27.74l-1.09-.74c-9.49-6.47-18.46-12.59-20.56-25.25-1.05-6.31-3.01-22.49-2.94-28.93.14-13.47,13.45-22.46,25.18-30.38,3.67-2.48,7.14-4.83,9.93-7.13,4.44-3.68,8.33-7.55,12.09-11.29,9.9-9.84,19.25-19.14,36.06-22.22,20.27-3.72,35.09-6.68,51.14-10.21,10.46-2.31,19.28-3.43,26.94-3.43,12.92,0,21.85,3.08,33.14,6.98,7.19,2.48,15.35,5.3,26.1,7.84,4.19.99,8.53,1.47,13.27,1.47,7.81,0,15.58-1.33,23.09-2.62,7.33-1.25,14.91-2.55,22.35-2.55,2.68,0,5.17.16,7.61.49,4.21.57,7.51,2.6,9.06,5.56.99,1.89,1.71,5.02-.44,9.2-3.75,7.3-20.94,14.01-33.5,18.91-3.39,1.33-6.33,2.47-8.4,3.4-2.75,1.24-6.08,2.83-9.59,4.51-16.97,8.1-40.21,19.2-55.72,19.2-1.67,0-3.23-.13-4.64-.39-3.56-.66-6.09-2.35-7.54-5.02-2.83-5.23-.42-12.26.74-15.03,1.26-2.99,2.99-5.42,4.39-7.37,1.67-2.33,2.99-4.17,2.54-5.59-.53-1.68-3.51-3.42-9.37-5.46-8.18-2.85-18.21-4.42-28.25-4.42-7.72,0-15.02.94-21.11,2.73-10.35,3.04-18.44,8.92-27,15.15-3.58,2.61-7.29,5.3-11.16,7.75-2.24,1.42-6.08,3.45-10.52,5.8-10.16,5.38-25.51,13.51-27.38,17.85-1.44,3.34,1.62,9.32,4.08,14.12,1.1,2.15,2.15,4.19,2.73,5.84,1.5,4.29,2.32,8.09,3.03,11.44,1.96,9.18,3.26,15.25,16.59,20.88,12.94,5.47,61.11,15.82,74.69,16.05.23,0,.46,0,.69,0,13.25,0,22.15-6.33,31.58-13.02,9.16-6.51,18.64-13.24,32.21-13.24,1.42,0,2.87.07,4.33.22,4.27.43,8.28,1.61,12.15,2.75,4.94,1.46,9.61,2.83,14.89,2.83,1.15,0,2.31-.07,3.44-.2,9.96-1.19,14.02-8.66,18.31-16.58,1.86-3.43,3.78-6.97,6.23-10,3.89-4.81,8.91-9.04,13.77-13.13,5.46-4.6,11.11-9.35,14.96-14.84,3.37-4.8,5.91-10.59,8.36-16.2,5.85-13.38,11.89-27.22,29.75-28.78.94-.08,1.9-.12,2.83-.12,16.32,0,27.67,12.39,38.64,24.37,4.29,4.68,8.34,9.11,12.61,12.71,9.88,8.34,23.24,13.13,36.66,13.13,8.7,0,17.2-2,24.59-5.77,3.48-1.77,10-6.58,10.08-9.44.01-.41-.09-1.02-1.14-1.63-7.02-4.1-15.44-5.83-23.58-7.51-8.65-1.79-17.6-3.63-24.84-8.33-6.18-4-9.13-8.69-8.09-12.85,1.02-4.12,5.76-6.85,12.99-7.5,3.7-.33,7.82-.49,12.59-.49s10.12.17,15.09.34c4.96.17,10.09.34,15.01.34,2.77,0,5.25-.05,7.59-.16,11.84-.55,23.89-2.18,35.54-3.75,11.5-1.55,23.39-3.16,35.1-3.73,3.62-.18,7.65-.27,12.3-.27,5.12,0,10.28.1,15.74.21,5.46.11,11.11.22,16.7.22,20.3,0,43.46-1.39,61.24-11.71,3.81-2.21,7.35-4.97,10.77-7.63,6.06-4.72,12.33-9.6,20.44-11.77,2.81-.75,5.26-1.11,7.49-1.11,8.05,0,11.54,4.76,15.58,10.27,2.11,2.88,4.29,5.85,7.39,8.57,8.45,7.42,21.69,8.68,34.49,9.89,7.44.71,14.47,1.37,20.71,3.16,7.39,2.12,15.56,6.94,23.46,11.59,9.57,5.64,19.46,11.48,27.26,11.93.38.02.75.03,1.12.03,9.58,0,17.4-7.11,24.96-14,3.32-3.02,6.45-5.87,9.68-8.09,13.73-9.43,30.31-10.71,46.34-11.94,5.34-.41,10.86-.83,16.12-1.56,5.5-.76,11.02-1.8,16.86-2.89,11.21-2.11,22.8-4.29,34.08-4.29,4.47,0,8.56.33,12.48,1.02,7.23,1.26,14.29,4.2,21.13,7.05,8.21,3.42,16.7,6.96,25.52,7.6.53.04,1.11.06,1.75.06h0c4.53,0,11.9-.9,19.7-1.85,9.54-1.16,20.34-2.48,28.54-2.48,7.07,0,11.25.95,13.17,2.98.86.92,1.28,1.96,1.23,3.1-.11,2.74-2.91,5.26-4.77,6.93l-.48.43c-16.79,15.37-75.9,43.47-99.16,45.02-1.27.08-2.51.13-3.66.13-13.05,0-16.18-5.39-16.51-9.9-.31-4.29,2.75-7.9,5.46-11.08,2.39-2.81,4.65-5.47,4.24-8.02-.3-1.85-1.97-3.69-5.11-5.6-7.34-4.48-20.2-7.26-33.54-7.26-6.82,0-13.23.75-18.06,2.12-11.87,3.36-18.97,10.77-25.84,17.93-5.91,6.16-12.01,12.53-21.02,16.08-2.85,1.12-6.07,1.97-9.48,2.86-6.17,1.62-12.54,3.29-16.79,6.74-7.86,6.38-5.22,10.47-1.57,16.13,1.53,2.37,3.11,4.82,4.05,7.69,1.58,4.83,1.87,9.19,2.12,13.04.58,8.72.96,14.47,14.83,19.03,17.1,5.62,56.63,15.66,74.5,15.66.93,0,1.8-.03,2.59-.08,12.42-.84,22.76-7.54,32.77-14.02,10.66-6.9,20.72-13.42,33.03-13.42,3.75,0,7.42.6,11.23,1.84,7.06,2.29,11.1,5.77,12.02,10.34,1.1,5.52-2.55,12.2-10.28,18.82-10.95,9.36-22.83,14.01-35.42,18.92-4.97,1.94-10.11,3.95-15.17,6.27-8.03,3.68-9.42,5.81-11.95,9.66-1.12,1.71-2.51,3.83-4.76,6.52-4.91,5.88-8.88,7.87-16.47,10.36-19.26,6.32-45.59,13.85-61.66,13.85ZM755.21,105.66c-1.38,0-2.64.07-3.72.21-23.4,2.99-24.83,19.37-26.34,36.71-.7,8.04-1.43,16.35-4.47,23.31-1.95,4.46-5.92,9.11-9.77,13.6-6.02,7.04-12.25,14.32-11.02,20.98.75,4.03,4.12,7.62,10.31,10.97,8.52,4.62,22.11,7.16,38.25,7.16,36.35,0,80.73-12.85,91.37-36.66,4.81-10.76,4.47-38.64-4.36-48.2-8.09-8.76-34.32-18.97-54.89-24.12-10.21-2.56-19.22-3.97-25.37-3.97Z"/>
    <path class="cls-5" d="M746.01,57.62c11.55,0,13.15,10.55,22.32,18.6,13.55,11.9,38.41,8.34,55.58,13.27,16.34,4.69,36.45,22.72,50.94,23.56.4.02.79.03,1.18.03,14.23,0,24.6-14.98,35.21-22.27,18.1-12.43,41.16-10.45,62.03-13.33,16.39-2.26,33.93-7.17,50.81-7.17,4.15,0,8.26.3,12.31,1,15.76,2.75,30.37,13.47,46.75,14.66.55.04,1.16.06,1.82.06,10.14,0,33.39-4.33,48.24-4.33,5.98,0,10.59.7,12.44,2.67,3,3.18-1.77,7.04-3.96,9.05-17,15.56-75.88,43.25-98.55,44.76-1.1.07-2.32.13-3.59.13-6.68,0-14.96-1.44-15.51-8.98-.73-9.99,19.15-16.32,4.11-25.49-8.22-5.01-21.71-7.41-34.06-7.41-6.82,0-13.29.73-18.33,2.16-22.48,6.36-27.83,26.51-46.95,34.04-8.04,3.17-19.77,4.25-26.54,9.75-12.03,9.77-.94,15.41,2.16,24.9,5.02,15.38-3.33,25.83,17.59,32.7,16.47,5.41,56.34,15.71,74.82,15.71.95,0,1.83-.03,2.66-.08,25.59-1.73,41.93-27.44,65.73-27.44,3.47,0,7.09.54,10.92,1.79,17.6,5.71,12.53,17.92,1.39,27.45-15.25,13.05-32.87,17.02-50.35,25.03-11.9,5.46-9.76,7.71-17.06,16.46-4.91,5.87-8.89,7.72-16.01,10.05-15.23,4.99-44.1,13.8-61.35,13.8-1.37,0-2.67-.06-3.88-.17-16.12-1.56-52.29-20.11-33.72-39.64,5.73-6.03,13.5-5.24,5.22-15.69-5.62-7.1-11.98-9.47-18.63-9.47-10.64,0-22.05,6.05-32.48,8.52-15.39,3.64-31.99,4.27-47.63,7.26-14.46,2.76-30.46,8.81-44.92,9.97-2.77.22-5.5.32-8.18.32-24.69,0-45.75-8.47-69.41-8.47-7.44,0-15.14.84-23.29,3.04-16.09,4.35-30.51,11.85-47.43,11.85-1.94,0-3.91-.1-5.93-.31-8.45-.9-23.65-6.16-17.17-16.99,5.41-9.06,26.91-10.1,36.84-13.4,16.63-5.52,33.68-18.77,41.88-34.46,7.95-15.2.01-28.8,7.27-43.98,4.06-8.5,20.17-23.6,1.66-26.14-5.26-.72-12.95-1.08-21.43-1.08-17.12,0-37.49,1.45-47.76,4.26-12.72,3.48-34.07,17.59-47.39,31.36-4.76,4.92-8.5,9.8-10.44,14.14-3.37,7.51-3.75,15.93-6.09,23.73-1.85,6.17-6.53,13.68-7.45,19.55-1.83,11.62,14.08,37.04-6.27,39.4-1.62.19-3.23.28-4.83.28-23.45,0-45.03-19.38-57.77-37.27-10.49-14.74-20.06-39.9-34.64-50.11-4.02-2.82-7.51-3.98-10.64-3.98-9.83,0-16.07,11.5-24.15,19.33-4.66,4.51-21.81,16.75-20.8,23.54.54,3.65,5.38,5.52,8.43,6.53,13.29,4.42,30.27,1.54,42.62,8.55,16.24,9.22-11.61,19.82-18.85,22.22-23.31,7.73-60.38,14.39-84.85,14.71-.25,0-.5,0-.75,0-16.13,0-20.63-7.01-33.21-13.6-4.8-2.51-8.36-3.47-11.42-3.47-6.55,0-10.81,4.41-19.97,7.46-8.58,2.85-17.8,3.85-27.24,3.85-16.99,0-34.7-3.21-50.65-4.54-9.16-.77-18.67.01-27.88-.95-26.97-2.82-43.74-12.7-65.49-27.57-9.81-6.71-19.11-12.62-21.23-25.33-1.08-6.52-3-22.52-2.93-28.75.18-17.12,23.19-27.18,34.74-36.76,16.21-13.43,24.9-29.11,47.69-33.29,17.99-3.3,33.29-6.28,51.18-10.22,10.93-2.41,19.46-3.4,26.72-3.4,20.98,0,31.46,8.29,59.01,14.79,4.56,1.08,9.05,1.49,13.5,1.49,15.6,0,30.56-5.17,45.45-5.17,2.49,0,4.98.14,7.47.48,7.17.97,11.42,6.4,7.87,13.32-4.58,8.93-31.89,17.57-41.42,21.86-15.4,6.93-46.28,23.62-64.9,23.62-1.58,0-3.07-.12-4.46-.38-9.64-1.78-9.14-11.33-6.05-18.68,4.45-10.61,14.91-13.5-3.04-19.75-8.34-2.91-18.57-4.47-28.58-4.47-7.56,0-14.99.89-21.39,2.77-15.03,4.41-25.64,14.93-38.41,23.02-7.72,4.89-35.47,17.58-38.29,24.1-2.31,5.35,4.89,15.28,6.78,20.69,5.62,16.02,1.42,24.98,20.18,32.91,13,5.49,61.12,15.89,75.07,16.13.24,0,.48,0,.71,0,27.03,0,37.18-26.27,63.79-26.27,1.37,0,2.78.07,4.23.21,9.42.94,17.38,5.58,27.14,5.58,1.16,0,2.34-.07,3.56-.21,14.99-1.79,17.28-17.13,25.2-26.94,8.21-10.16,21.42-17.56,28.77-28.02,11.45-16.29,12.72-42.4,37.37-44.56.93-.08,1.84-.12,2.74-.12,22.14,0,35.37,23.97,50.61,36.83,10.32,8.72,23.83,13.36,37.31,13.36,8.64,0,17.27-1.91,25.04-5.88,3.56-1.82,14.79-9.44,8.99-12.82-14.7-8.57-34.56-6.85-48.38-15.82-12.03-7.8-9.94-17.22,4.45-18.51,4.04-.36,8.23-.49,12.49-.49,9.9,0,20.22.68,30.11.68,2.58,0,5.13-.05,7.64-.16,23.58-1.1,47.12-6.33,70.64-7.49,3.95-.2,8.05-.26,12.25-.26,10.38,0,21.4.42,32.44.42,22.07,0,44.25-1.69,61.74-11.85,10.6-6.15,18.51-15.97,30.97-19.3,2.79-.75,5.17-1.08,7.23-1.08M748.46,219.6c36.37,0,81.41-12.91,92.29-37.25,5.09-11.39,4.52-39.48-4.54-49.28-8.07-8.73-33.47-18.92-55.38-24.42-9.89-2.48-19.06-4-25.62-4-1.41,0-2.7.07-3.85.22-35.41,4.53-22.2,39.09-31.6,60.61-6.6,15.12-37.05,32.19-10.04,46.83,9.03,4.89,23.08,7.28,38.72,7.28M746.01,55.62c-2.32,0-4.85.38-7.74,1.15-8.31,2.22-14.66,7.16-20.8,11.95-3.39,2.64-6.9,5.38-10.65,7.55-17.58,10.2-40.57,11.58-60.74,11.58-5.59,0-11.23-.11-16.68-.22-5.47-.11-10.63-.21-15.76-.21-4.67,0-8.71.09-12.35.27-11.75.58-23.66,2.19-35.18,3.74-11.63,1.57-23.66,3.19-35.46,3.74-2.32.11-4.79.16-7.55.16-4.91,0-10.03-.17-14.98-.34-4.99-.17-10.14-.34-15.13-.34s-8.95.16-12.67.5c-7.69.69-12.75,3.7-13.88,8.25-1.14,4.6,1.97,9.68,8.52,13.93,7.4,4.8,16.44,6.66,25.18,8.47,8.06,1.66,16.4,3.38,23.28,7.4.65.38.64.63.64.74-.06,2.15-5.83,6.68-9.54,8.58-7.25,3.7-15.6,5.66-24.13,5.66-13.19,0-26.31-4.7-36.02-12.89-4.21-3.56-8.25-7.96-12.52-12.62-11.12-12.14-22.62-24.69-39.38-24.69-.96,0-1.94.04-2.92.13-18.45,1.62-24.61,15.73-30.58,29.38-2.43,5.56-4.94,11.31-8.26,16.03-3.78,5.37-9.13,9.88-14.79,14.65-4.89,4.12-9.95,8.38-13.9,13.27-2.5,3.09-4.45,6.68-6.33,10.15-4.17,7.68-8.1,14.94-17.55,16.06-1.09.13-2.21.2-3.32.2-5.14,0-9.74-1.36-14.61-2.79-3.92-1.15-7.97-2.35-12.34-2.78-1.49-.15-2.98-.22-4.43-.22-13.89,0-23.5,6.83-32.79,13.43-9.29,6.6-18.07,12.84-31,12.84-.22,0-.45,0-.68,0-13.52-.23-61.44-10.53-74.32-15.97-12.85-5.43-14.04-10.98-16-20.17-.72-3.38-1.54-7.21-3.07-11.56-.6-1.72-1.66-3.78-2.78-5.97-2.24-4.37-5.31-10.36-4.05-13.27,1.73-4.02,17.51-12.37,26.93-17.36,4.46-2.36,8.32-4.41,10.59-5.84,3.89-2.46,7.61-5.17,11.21-7.79,8.49-6.18,16.51-12.01,26.69-15,6-1.76,13.2-2.69,20.83-2.69,9.93,0,19.85,1.55,27.92,4.36,6.7,2.33,8.46,3.91,8.74,4.81.3.94-1.01,2.77-2.4,4.7-1.42,1.99-3.2,4.47-4.5,7.56-1.22,2.91-3.73,10.28-.7,15.89,1.57,2.91,4.42,4.82,8.23,5.52,1.47.27,3.09.41,4.82.41,15.74,0,39.1-11.16,56.15-19.3,3.51-1.68,6.83-3.26,9.57-4.5,2.05-.92,4.97-2.06,8.36-3.38,15.86-6.19,30.4-12.34,34.02-19.39,1.83-3.56,1.98-7.15.43-10.12-1.7-3.25-5.27-5.47-9.81-6.09-2.48-.34-5.02-.5-7.74-.5-7.52,0-15.15,1.3-22.52,2.57-7.47,1.28-15.2,2.6-22.92,2.6-4.66,0-8.93-.47-13.04-1.44-10.71-2.53-18.83-5.33-26-7.81-11.38-3.93-20.38-7.04-33.47-7.04-7.74,0-16.62,1.13-27.15,3.45-16.04,3.54-30.85,6.49-51.11,10.21-17.11,3.14-26.57,12.54-36.58,22.5-3.75,3.72-7.62,7.58-12.02,11.23-2.74,2.27-6.19,4.6-9.85,7.07-11.94,8.07-25.47,17.21-25.62,31.2-.07,6.5,1.9,22.76,2.96,29.1,2.17,13.08,11.31,19.32,20.98,25.91l1.09.74c21.19,14.49,38.36,24.97,66.41,27.91,4.98.52,10.08.54,15,.56,4.27.02,8.69.04,12.92.39,5.51.46,11.14,1.14,17.1,1.85,11.07,1.33,22.52,2.7,33.72,2.7s19.89-1.29,27.87-3.95c3.87-1.29,6.87-2.8,9.51-4.13,3.59-1.8,6.42-3.23,9.83-3.23,2.93,0,6.26,1.03,10.49,3.24,3.45,1.8,6.25,3.62,8.95,5.38,6.97,4.53,12.99,8.44,25.18,8.44.25,0,.51,0,.77,0,23.8-.31,61.33-6.82,85.45-14.81,5.7-1.89,24.35-8.71,25.2-17.31.32-3.23-1.7-6.11-5.99-8.55-7.47-4.24-16.44-5.04-25.11-5.8-6.4-.56-12.44-1.1-17.87-2.9-1.65-.55-6.68-2.22-7.08-4.93-.63-4.19,10.3-13.35,15.55-17.75,1.93-1.61,3.59-3.01,4.66-4.05,2.25-2.18,4.35-4.62,6.38-6.99,5.21-6.06,10.12-11.78,16.38-11.78,2.91,0,6.01,1.18,9.49,3.62,9.31,6.52,16.56,19.5,23.57,32.05,3.6,6.45,7,12.55,10.59,17.58,6.37,8.94,29.46,38.11,59.39,38.11,1.69,0,3.39-.1,5.06-.29,4.63-.54,8-2.26,10-5.13,3.95-5.65,1.89-14.24-.1-22.55-1.24-5.17-2.41-10.06-1.89-13.38.49-3.12,2.24-6.97,3.92-10.7,1.3-2.87,2.65-5.85,3.47-8.59.96-3.19,1.6-6.48,2.22-9.67.95-4.88,1.84-9.49,3.78-13.81,1.74-3.87,5.21-8.56,10.06-13.57,13.13-13.57,33.98-27.39,46.48-30.82,10.57-2.9,31.34-4.19,47.24-4.19,8.66,0,16.18.38,21.16,1.06,2.59.36,5.86,1.18,6.72,3.11,1.33,2.99-2.58,8.76-5.73,13.41-1.65,2.43-3.21,4.73-4.19,6.78-3.75,7.84-3.66,15.24-3.58,22.39.09,7.31.17,14.21-3.66,21.53-7.55,14.45-23.92,27.9-40.74,33.49-2.75.91-6.56,1.67-10.6,2.48-10.79,2.15-23.02,4.59-27.33,11.79-2.66,4.46-1.95,7.94-.88,10.08,3.27,6.55,13.83,9.33,19.56,9.93,2.02.21,4.09.32,6.14.32,12.04,0,22.98-3.74,33.57-7.35,4.67-1.59,9.49-3.24,14.39-4.57,7.4-2,14.84-2.97,22.77-2.97,11.52,0,22.24,2.01,33.59,4.14,11.39,2.13,23.16,4.34,35.82,4.34,2.81,0,5.61-.11,8.34-.33,8.99-.72,18.55-3.29,27.8-5.77,6.05-1.62,11.76-3.16,17.33-4.22,6.8-1.3,13.93-2.16,20.83-3,8.92-1.08,18.14-2.2,26.88-4.27,3.84-.91,7.85-2.31,11.73-3.66,6.79-2.37,13.81-4.81,20.29-4.81,6.94,0,12.36,2.77,17.06,8.71,2.84,3.58,3.28,5.28,3.16,6.07-.14.89-1.29,1.7-3.16,2.94-1.51,1-3.39,2.25-5.1,4.06-6.81,7.16-6.3,13.84-4.68,18.19,2.27,6.07,8.42,12.15,17.34,17.13,7.4,4.13,15.96,7.08,22.32,7.69,1.25.12,2.62.18,4.07.18,16.19,0,42.64-7.56,61.97-13.9,7.63-2.5,11.88-4.64,16.92-10.67,2.29-2.74,3.7-4.89,4.83-6.62,2.5-3.82,3.76-5.74,11.53-9.3,5.03-2.31,10.15-4.31,15.11-6.24,12.66-4.94,24.63-9.61,35.7-19.09,8.02-6.86,11.79-13.88,10.61-19.77-.99-4.95-5.26-8.69-12.69-11.1-3.86-1.25-7.74-1.89-11.54-1.89-12.6,0-23.26,6.9-33.57,13.58-9.9,6.41-20.14,13.04-32.29,13.86-.77.05-1.62.08-2.53.08-17.77,0-57.14-10.01-74.19-15.61-13.22-4.34-13.57-9.54-14.14-18.14-.26-3.9-.55-8.33-2.17-13.28-.98-2.99-2.67-5.61-4.16-7.92-3.62-5.61-5.8-8.99,1.36-14.81,4.08-3.31,10.35-4.96,16.42-6.55,3.44-.9,6.69-1.75,9.59-2.9,9.21-3.63,15.39-10.08,21.37-16.31,6.77-7.07,13.78-14.37,25.39-17.66,4.74-1.34,11.06-2.08,17.79-2.08,13.17,0,25.82,2.73,33.02,7.12,2.84,1.73,4.4,3.38,4.65,4.91.34,2.1-1.77,4.58-4.01,7.22-2.83,3.33-6.04,7.11-5.69,11.8.36,4.94,3.69,10.83,17.51,10.83,1.18,0,2.43-.04,3.73-.13,23.41-1.56,82.88-29.82,99.77-45.28.15-.13.31-.28.47-.43,1.98-1.78,4.97-4.47,5.1-7.64.06-1.4-.46-2.73-1.5-3.83-2.12-2.25-6.53-3.3-13.9-3.3-8.25,0-19.09,1.32-28.66,2.49-7.77.95-15.11,1.84-19.58,1.84-.63,0-1.19-.02-1.68-.05-8.66-.63-17.07-4.14-25.21-7.52-6.88-2.87-14-5.83-21.34-7.11-3.98-.7-8.12-1.03-12.65-1.03-11.37,0-23.01,2.19-34.27,4.3-5.83,1.1-11.33,2.13-16.81,2.89-5.23.72-10.74,1.14-16.06,1.55-16.16,1.24-32.87,2.52-46.83,12.11-3.29,2.26-6.45,5.14-9.79,8.18-7.42,6.75-15.09,13.74-24.28,13.74-.35,0-.71-.01-1.07-.03-7.56-.44-17.34-6.21-26.81-11.79-7.95-4.69-16.17-9.54-23.69-11.69-6.32-1.81-13.73-2.52-20.89-3.2-12.64-1.2-25.71-2.44-33.92-9.65-3.01-2.65-5.17-5.58-7.24-8.41-4.03-5.49-7.83-10.68-16.39-10.68h0ZM748.46,217.6c-15.98,0-29.39-2.5-37.77-7.04-5.91-3.2-9.12-6.56-9.8-10.27-1.15-6.2,4.92-13.29,10.79-20.15,3.89-4.55,7.92-9.25,9.93-13.85,3.11-7.11,3.84-15.51,4.55-23.62,1.54-17.66,2.87-32.91,25.47-35.8,1.04-.13,2.25-.2,3.6-.2,6.07,0,14.99,1.4,25.13,3.94,20.43,5.12,46.43,15.21,54.39,23.83,8.6,9.31,8.89,36.57,4.18,47.11-6.07,13.58-22.62,22.01-35.44,26.69-16.31,5.96-36.36,9.37-55.02,9.37h0Z"/>
  </g>
  <rect class="cls-5" x="814.12" y="397.03" width="44.89" height="44.89" rx="22.45" ry="22.45"/>
  <path class="cls-5" d="M784.15,364.77c-4.62-7.18-11.73-12.59-21.3-16.22,5.94-3.47,10.57-8.3,13.87-14.49,3.3-6.19,4.95-13.25,4.95-21.18,0-13.7-4.87-24.4-14.61-32.08-9.74-7.68-23.2-11.52-40.37-11.52h-60.68v172.63h68.61c17.67,0,31.49-4.46,41.49-13.38,9.99-8.92,14.98-21.3,14.98-37.15,0-10.57-2.31-19.44-6.94-26.62ZM697.96,298.76h28.73c7.43,0,13.13,1.65,17.09,4.95,3.96,3.3,5.94,8.01,5.94,14.12,0,6.44-1.94,11.52-5.82,15.23-3.88,3.72-9.12,5.57-15.73,5.57h-30.22v-39.88ZM732.14,412.44h-34.18v-45.32h35.91c8.09,0,14.32,1.98,18.7,5.94,4.37,3.96,6.56,9.58,6.56,16.84,0,15.03-9,22.54-27,22.54Z"/>
  <path class="cls-5" d="M918.53,233.05c13.29-9.24,22.83-21.88,28.61-37.9l-30.22-10.9c-3.63,10.07-9.37,17.92-17.21,23.53-7.84,5.62-17.38,8.42-28.61,8.42-10.24,0-19.2-2.39-26.87-7.18-7.68-4.79-13.54-11.64-17.59-20.56-4.05-8.92-6.07-19.57-6.07-31.95s2.02-22.99,6.07-31.83c4.04-8.83,9.91-15.64,17.59-20.43,7.68-4.79,16.63-7.18,26.87-7.18,11.23,0,20.76,2.81,28.61,8.42,7.84,5.61,13.58,13.46,17.21,23.53l30.22-11.14c-5.78-16.01-15.32-28.61-28.61-37.77-13.29-9.17-29.1-13.75-47.43-13.75-16.35,0-30.76,3.8-43.22,11.39-12.47,7.6-22.17,18.12-29.1,31.58-6.94,13.46-10.4,29.19-10.4,47.18s3.47,33.77,10.4,47.31c6.93,13.54,16.63,24.11,29.1,31.7,12.47,7.59,26.87,11.39,43.22,11.39,18.33,0,34.14-4.62,47.43-13.87h0ZM660.32,99.8h17.83c12.22,0,22.66,1.78,31.33,5.32,8.67,3.55,15.36,9.5,20.06,17.83,4.71,8.34,7.06,19.61,7.06,33.81s-2.44,26.17-7.31,34.43c-4.87,8.26-11.85,14.04-20.93,17.34-9.08,3.31-20.15,4.95-33.19,4.95h-14.86v-113.68ZM678.4,242.96c29.23,0,51.6-7.31,67.12-21.92,15.52-14.61,23.28-35.62,23.28-63.04s-7.84-49.7-23.53-64.89c-15.69-15.19-37.9-22.79-66.63-22.79h-50.28v172.63h50.03ZM489.67,242.96V111.94h-7.93l80.25,131.02h33.19V70.32h-31.95v130.77h7.93l-80.5-130.77h-32.94v172.63h31.95ZM405.34,233.05c13.29-9.24,22.83-21.88,28.61-37.9l-30.22-10.9c-3.63,10.07-9.37,17.92-17.21,23.53-7.84,5.62-17.38,8.42-28.61,8.42-10.24,0-19.2-2.39-26.87-7.18-7.68-4.79-13.54-11.64-17.59-20.56-4.05-8.92-6.07-19.57-6.07-31.95s2.02-22.99,6.07-31.83c4.04-8.83,9.91-15.64,17.59-20.43,7.68-4.79,16.63-7.18,26.87-7.18,11.23,0,20.76,2.81,28.61,8.42,7.84,5.61,13.58,13.46,17.21,23.53l30.22-11.14c-5.78-16.01-15.32-28.61-28.61-37.77-13.29-9.17-29.1-13.75-47.43-13.75-16.35,0-30.76,3.8-43.22,11.39-12.47,7.6-22.17,18.12-29.1,31.58-6.94,13.46-10.4,29.19-10.4,47.18s3.47,33.77,10.4,47.31c6.93,13.54,16.63,24.11,29.1,31.7,12.46,7.59,26.87,11.39,43.22,11.39,18.33,0,34.14-4.62,47.43-13.87h0Z"/>
  <path class="cls-4" d="M279.2,88.33c23.26,5.49,44.81-6.12,66.41-3.19,7.17.97,11.42,6.4,7.87,13.32-4.58,8.93-31.89,17.57-41.42,21.86-16.71,7.52-51.63,26.52-69.36,23.24-9.64-1.78-9.14-11.33-6.05-18.68"/>
  <path class="cls-3" d="M603.74,118.16c-12.72,3.48-34.07,17.59-47.39,31.36l-25.62-52.35c23.58-1.1,47.12-6.33,70.64-7.49"/>
  <g>
    <path class="cls-3" d="M838.29,445.96c-7.1,0-13.73-.77-20.28-2.36-7.65-1.85-15.5-5-23.1-8.05-10.93-4.38-22.24-8.92-33.33-9.8-1.48-.12-3.04-.18-4.61-.18-7.26,0-14.59,1.27-21.68,2.49-5.94,1.03-12.08,2.09-18.21,2.42-5.92.32-12.34.48-19.65.48s-15.07-.16-22.43-.32c-7.37-.16-14.98-.32-22.46-.32-14.85,0-26.79.67-37.59,2.11-6.15.82-12.12,2.02-17.89,3.18-10.17,2.05-19.77,3.98-30.21,3.98-4.32,0-8.42-.33-12.55-1.01-6.59-1.09-13.32-3.38-19.83-5.6-9.06-3.09-18.43-6.29-27.66-6.34h-.31c-5.01,0-10.66.76-16.12,1.5-4.14.56-8.42,1.13-12.36,1.37-13.84.81-28.63,1.21-45.22,1.21-19.17,0-38.59-.53-57.37-1.04-18.74-.51-38.11-1.04-57.2-1.04-20.08,0-37.77.59-54.09,1.82-6.17.46-12.34,1.02-18.89,1.61-16.08,1.45-32.72,2.96-49.21,2.96-20.19,0-37.07-2.34-51.61-7.16-2.95-.98-12.71-4.68-14.2-11.24-.71-3.12.58-6.28,3.81-9.39,5.56-5.35,17.21-6.04,26.74-6.04,4.45,0,9.03.17,13.46.33,4.17.15,8.11.3,11.71.3,3.79,0,6.74-.17,9.02-.52,14.48-2.21,13.97-8.05,13.11-17.72-.24-2.65-.5-5.64-.42-8.77.25-9.95,6.27-17.08,12.65-24.63,7.18-8.5,14.6-17.28,15.34-31.29.82-15.42-3.47-17.25-12.01-20.87-2.83-1.2-6.03-2.56-9.58-4.66-5.55-3.28-8.24-6.76-7.99-10.33.28-4,4.28-7.71,11.56-10.74,12-4.98,36.05-5.73,55.37-6.34,6.68-.21,13-.41,17.93-.76,21.09-1.5,43.79-2.89,66.91-2.89,1.6,0,3.2,0,4.8.02,4.1.03,14.15.83,18.93,7.48,2.21,3.08,2.9,5.89,2.05,8.35-1.52,4.38-7.65,6.65-12.81,8.14-6.35,1.83-15.33,2.62-24.83,3.46-22.83,2.02-48.7,4.31-54.77,20.83-1.25,3.4-1.69,6.96-2.17,10.74-.66,5.23-1.33,10.64-4.3,15.67-2.93,4.97-7.95,8.55-12.8,12.01-5.04,3.59-9.8,6.98-11.87,11.6-4.46,9.98-2.15,28.93,6.43,35.39,3.32,2.5,8.84,3.72,16.88,3.72,7.38,0,15.39-1.02,22.47-1.91,3.42-.43,6.65-.84,9.26-1.05,2.64-.22,5.12-.24,7.4-.24h3.63c4.96,0,9.87-.13,15.45-1.86,9.13-2.83,14.74-9.48,20.16-15.91,7.26-8.61,14.78-17.52,30.61-17.52.93,0,1.89.03,2.85.09,10.53.66,17.13,3.73,19.6,9.13,2.76,6.01.19,14.65-7.43,25.05,3.98,1.83,7.82,2.76,11.41,2.76,12.36,0,21.1-10.81,29.56-21.26,3.3-4.08,6.72-8.3,10.25-11.71,2.79-2.69,5.96-4.98,9.03-7.18,5.96-4.29,11.59-8.34,14.67-15.16,1.37-3.02,2.17-6.02,2.95-8.93,1.68-6.23,3.26-12.12,9.9-17.13,1.65-1.25,4.43-2.65,7.66-4.27,7.05-3.55,16.71-8.4,17.74-13.8.34-1.8-.29-3.57-1.93-5.42-2.25-2.53-6.7-4.24-11.42-6.04-7.62-2.92-16.26-6.23-15.92-14.18.29-6.76,7.43-10.19,21.23-10.19,3.15,0,5.96.17,8.02.3l.29.02c7.47.45,15.03,1.63,22.33,2.77,8.17,1.28,16.61,2.6,24.99,2.91,1.1.04,2.27.06,3.49.06,4.48,0,9.82-.24,15.47-.5,6.76-.31,13.76-.62,20.79-.62,18.32,0,29.95,2.34,36.59,7.35,3.12,2.36,4.52,4.75,4.17,7.12-.78,5.26-9.82,8.59-17.08,11.27-2.29.84-4.26,1.57-5.47,2.19-12.09,6.24-11.02,12.3-9.41,21.47.57,3.23,1.21,6.89,1.27,10.9.05,3.3-.42,6.8-.92,10.5-.54,3.98-1.09,8.09-.92,11.85.28,6.27,2.34,12.04,4.32,17.62,1.33,3.73,2.7,7.59,3.55,11.6.48,2.25.73,4.64.98,6.94.78,7.29,1.52,14.17,8.89,17.3,3.16,1.34,6.66,1.99,10.7,1.99,4.95,0,10.1-.98,15.09-1.92,3.86-.73,7.85-1.49,11.66-1.76,1.42-.1,3.09-.15,5.11-.15,2.31,0,4.81.06,7.46.13,2.92.07,5.94.15,9.01.15,11.43,0,25.23-1.03,30.6-9.09,4.53-6.79,1.81-13.64-1.07-20.89-2.81-7.08-5.72-14.41-2.1-22.18,2.33-5,8.12-8.53,13.72-11.94,8.07-4.92,15.7-9.56,13.84-18.1-1.93-8.83-22.33-10.47-34.52-11.44-3.43-.27-6.39-.51-8.41-.84-10.58-1.74-17-4.7-19.64-9.06-1.5-2.47-1.73-5.34-.68-8.52,3.69-11.19,26.95-16.26,42.34-19.62,3.89-.85,7.24-1.58,9.69-2.27,4.19-1.19,8.41-2.74,12.49-4.25,7.79-2.88,15.84-5.86,24.4-6.54,1.75-.14,3.58-.21,5.45-.21,7.98,0,16.05,1.28,23.86,2.52,6.31,1,12.84,2.04,19.23,2.38,3.76.2,7.63.29,12.2.29,2.03,0,3.99-.02,5.9-.03,1.82-.02,3.59-.03,5.33-.03,12.42,0,24.04.66,40.64,8.76,4.8,2.34,28.96,14.88,33.08,31.85,1.46,6,.15,11.79-3.88,17.21-1.83,2.46-4.81,4.5-7.68,6.47-5.29,3.63-10.29,7.06-8.49,12.73,1.22,3.83,7.57,6.54,14.93,9.66,9.81,4.17,22.02,9.36,26.28,19.8.8,1.97,1.46,4.92,2.16,8.04,1.16,5.19,2.47,11.07,4.59,13.03,1.47,1.37,4.2,2.07,8.11,2.07h0c4.69,0,10.21-.96,15.09-1.81,3.12-.54,5.82-1.01,7.86-1.15,3.57-.25,6.72-.37,9.63-.37,11.04,0,26.96,1.52,37.71,14.71,7.42,9.1,6.38,16.49,4.2,21.08-5.04,10.61-20.99,16.95-33.51,16.95-.42,0-.85,0-1.26-.02-9.22-.31-17.71-3.4-25.92-6.39-5.9-2.15-12-4.36-18.21-5.47-4.77-.85-9.77-1.28-14.88-1.28-16.45,0-32.76,4.42-48.54,8.69-15.94,4.31-32.42,8.77-49.2,8.77ZM792.26,347.29c-12.64,0-21.73,2.57-26.99,7.64-1.77,1.71-4.97,7.07-5.11,8.94-.17,2.13.86,4.48,1.94,6.96,1.1,2.54,2.25,5.16,2.16,7.77-.08,2.46-1.16,4.54-2.19,6.55-1.64,3.18-2.93,5.68-.53,9.16,4.2,6.07,18.99,7.15,30.88,8.01,4.57.33,8.9.65,12.01,1.22,8.48,1.56,16.65,4.49,24.54,7.32,11.5,4.13,23.4,8.4,36.33,8.4,1.49,0,3-.06,4.47-.17,10.5-.8,22.78-5.54,25.92-13.04,1.75-4.17.52-8.79-3.65-13.74-7.53-8.92-29.79-29.52-40.46-34.25-5.43-2.41-12.21-3.86-18.2-5.13l-1.98-.42c-11.99-2.59-26.02-5.24-39.12-5.24ZM522.89,381.8c-3.01,0-5.48.13-7.34.38-5.95.81-15.58,4.46-17.38,9.7-.82,2.38.09,4.95,2.71,7.62,9.46,9.68,34.84,16.42,51.7,16.42h0c3.32,0,6.22-.26,8.63-.77,10.44-2.21,17.43-7.65,17.79-13.86.34-5.74-5.06-11.06-14.43-14.23-8-2.71-28.26-5.27-41.68-5.27ZM539.78,338.16c-1.01,0-1.57.07-1.87.14-4.28.89-7.8,4.22-8.2,7.74-.32,2.77,1.37,5.15,4.74,6.7,2.67,1.23,7.56,2.02,12.45,2.02h0c7.42,0,13.15-1.74,15.31-4.67,1.12-1.51,1.33-3.32.66-5.52-.92-3.01-15.74-6.41-23.09-6.41ZM842.53,291.46c-1.92,0-3.71.09-5.2.26-17.24,1.97-28.7,11.44-28.57,19.04.11,6.54,8.6,11.13,22.72,12.28,1.75.14,4.08.22,6.57.22,15.79,0,35.19-2.82,37.91-10.77,1.38-4.02.99-7.58-1.14-10.56-5.91-8.26-23.08-10.47-32.29-10.47Z"/>
    <path class="cls-5" d="M779.05,258.51c14.36,0,28.72,4.14,43.04,4.9,4.41.23,8.46.29,12.26.29s7.66-.06,11.22-.06c12.94,0,24.19.84,40.2,8.66,15.86,7.74,43.78,27.51,28.84,47.56-5.02,6.74-19.42,10.37-16.32,20.1,3.14,9.87,34.01,11.81,41.24,29.53,2.12,5.2,3.31,18.01,6.99,21.43,1.86,1.73,5.06,2.33,8.79,2.33,7.78,0,17.86-2.6,23.02-2.96,3.17-.22,6.38-.37,9.57-.37,13.92,0,27.52,2.79,36.93,14.34,17.15,21.03-8.84,36.4-28.53,36.4-.41,0-.82,0-1.23-.02-15.69-.52-29.07-9.19-43.99-11.84-5.07-.9-10.08-1.29-15.05-1.29-33.18,0-64.47,17.46-97.74,17.46-6.59,0-13.26-.69-20.04-2.33-18.51-4.49-37.55-16.36-56.58-17.88-1.57-.12-3.13-.18-4.69-.18-13.42,0-26.54,4.19-39.95,4.92-6.51.35-13.04.48-19.59.48-14.91,0-29.92-.64-44.89-.64-12.63,0-25.22.45-37.72,2.12-16.73,2.23-31.56,7.16-47.96,7.16-4.02,0-8.13-.3-12.39-1-15.62-2.58-31.55-11.86-47.65-11.96-.11,0-.21,0-.32,0-8.91,0-19.48,2.33-28.54,2.86-15.11.89-30.16,1.21-45.16,1.21-38.3,0-76.34-2.08-114.56-2.08-18,0-36.04.46-54.17,1.82-21.61,1.62-45,4.57-68.02,4.57-17.64,0-35.05-1.73-51.29-7.11-8.52-2.82-19.56-9.76-10.01-18.96,4.91-4.72,15.06-5.76,26.05-5.76,8.58,0,17.67.63,25.17.63,3.47,0,6.59-.13,9.17-.53,19.75-3.02,13.18-13.49,13.53-27.45.51-20.45,26.56-28.86,27.99-55.9,1.13-21.41-7.95-18.09-22.07-26.45-12.6-7.45-7.91-14.57,3.45-19.28,15.98-6.64,53.94-5.67,72.98-7.02,22.44-1.59,44.37-2.88,66.84-2.88,1.6,0,3.19,0,4.79.02,6.32.05,14.27,1.7,18.12,7.06,6.48,9.01-2.54,12.73-10.23,14.94-21.09,6.06-71.32.57-80.26,24.91-3.07,8.36-1.46,17.89-6.39,26.24-5.82,9.87-20.49,14.25-24.72,23.71-4.5,10.06-2.55,29.6,6.74,36.6,3.93,2.96,10.36,3.92,17.48,3.92,11.15,0,24.02-2.33,31.81-2.97,2.53-.21,4.95-.24,7.31-.24,1.22,0,2.43,0,3.64,0,5.09,0,10.1-.17,15.74-1.91,21.67-6.72,23.31-33.38,50.48-33.38.9,0,1.83.03,2.79.09,25.36,1.6,23.23,16.97,10.71,33.55,4.75,2.37,9.03,3.39,12.94,3.39,17.85,0,28.09-21.27,40.51-33.25,8-7.72,19.07-11.92,23.92-22.65,4.3-9.51,3.11-18.55,12.54-25.67,6.59-4.97,33.85-13.43,23.6-24.94-6.28-7.05-27.59-7.78-27.08-19.51.33-7.85,11.4-9.24,20.23-9.24,3.27,0,6.24.19,8.24.31,15.76.95,31.39,5.09,47.35,5.68,1.11.04,2.29.06,3.53.06,9.72,0,23.21-1.12,36.26-1.12,14.44,0,28.33,1.37,35.98,7.15,13.33,10.07-11.93,15.64-18.23,18.89-17.29,8.92-8.9,18.32-8.67,33.28.11,6.86-2.17,15.11-1.84,22.38.48,10.63,5.78,19.44,7.9,29.38,1.96,9.23.07,20.54,10.46,24.96,3.58,1.52,7.3,2.07,11.09,2.07,8.93,0,18.22-3.07,26.81-3.69,1.52-.11,3.21-.15,5.04-.15,4.83,0,10.59.28,16.47.28,12.71,0,25.94-1.3,31.43-9.53,9.34-14.02-10.19-27.97-3.09-43.21,5.41-11.61,31.02-15.09,27.62-30.67-2.63-12.06-34.15-11.49-43.74-13.06-8.45-1.39-23.29-4.9-19.53-16.28,4.4-13.34,39.08-17.77,51.36-21.24,12.18-3.44,23.8-9.73,36.7-10.76,1.79-.14,3.58-.21,5.37-.21M838.05,324.26c13.13,0,35.67-2.12,38.86-11.45,5.9-17.26-19.65-22.35-34.37-22.35-2.01,0-3.81.09-5.31.27-30.38,3.48-44.8,30.12-5.82,33.31,1.65.14,3.96.22,6.65.22M546.89,355.76c9.51,0,19.55-2.91,16.93-11.48-1.21-3.96-17.28-7.12-24.04-7.12-.86,0-1.56.05-2.07.16-8.48,1.76-13.42,11.86-3.68,16.33,2.75,1.26,7.73,2.11,12.87,2.11M865.29,420.28c1.5,0,3.01-.06,4.55-.17,16.51-1.26,36.95-11.83,22.95-28.41-7.69-9.12-29.89-29.67-40.82-34.52-6.12-2.72-13.75-4.19-20.38-5.62-9.94-2.15-25.29-5.26-39.33-5.26-11.15,0-21.49,1.96-27.68,7.92-1.78,1.72-5.24,7.27-5.42,9.59-.36,4.69,4.26,9.94,4.09,14.78-.2,5.92-6.96,9.93-2.55,16.31,6.17,8.92,32.44,7.61,43.53,9.65,20.77,3.82,39.06,15.74,61.05,15.74M552.58,416.93c3.31,0,6.31-.25,8.84-.79,22.32-4.73,25.85-22.45,3.47-30.02-8.52-2.88-28.95-5.32-42-5.32-2.94,0-5.5.12-7.47.39-9.01,1.23-25.6,8.43-15.25,19.01,9.6,9.82,35.16,16.72,52.42,16.72M779.05,256.51c-1.89,0-3.75.07-5.52.21-8.7.7-16.82,3.7-24.67,6.6-4.06,1.5-8.26,3.05-12.42,4.23-2.42.68-5.76,1.41-9.63,2.26-16.55,3.61-39.22,8.55-43.08,20.28-1.15,3.47-.89,6.62.77,9.35,2.8,4.62,9.45,7.74,20.34,9.53,2.07.34,5.05.58,8.49.85,11.13.89,31.85,2.55,33.62,10.66,1.59,7.32-3.99,11.32-13.38,17.04-5.72,3.49-11.64,7.09-14.1,12.37-3.8,8.16-.68,16.03,2.07,22.97,2.9,7.31,5.4,13.62,1.17,19.97-5.1,7.66-18.59,8.64-29.76,8.64-3.06,0-6.07-.08-8.98-.15-2.66-.07-5.16-.13-7.49-.13-2.05,0-3.74.05-5.18.15-3.86.28-7.88,1.04-11.77,1.78-4.94.94-10.05,1.9-14.9,1.9-3.91,0-7.28-.63-10.31-1.91-6.83-2.9-7.5-9.2-8.29-16.49-.25-2.33-.51-4.74-1-7.04-.87-4.07-2.25-7.96-3.59-11.72-2.05-5.77-3.99-11.21-4.27-17.33-.17-3.67.38-7.74.91-11.67.48-3.58.98-7.28.93-10.65-.06-4.09-.71-7.79-1.29-11.06-1.59-9.05-2.56-14.51,8.88-20.41,1.15-.59,3.1-1.31,5.35-2.14,7.51-2.77,16.86-6.21,17.73-12.06.41-2.76-1.13-5.47-4.56-8.07-6.82-5.15-18.64-7.55-37.19-7.55-7.05,0-14.06.32-20.83.62-5.64.26-10.97.5-15.43.5-1.25,0-2.41-.02-3.45-.06-8.32-.31-16.74-1.62-24.87-2.89-7.33-1.14-14.91-2.33-22.43-2.78l-.29-.02c-2.07-.13-4.9-.3-8.07-.3-14.43,0-21.91,3.75-22.23,11.15-.37,8.66,8.63,12.11,16.56,15.15,4.39,1.69,8.94,3.43,11.03,5.77,1.42,1.6,1.98,3.09,1.7,4.56-.94,4.91-10.73,9.83-17.2,13.09-3.26,1.64-6.08,3.06-7.81,4.36-6.91,5.22-8.61,11.54-10.26,17.66-.77,2.87-1.57,5.83-2.9,8.77-2.97,6.57-8.5,10.55-14.35,14.76-3.1,2.23-6.3,4.53-9.14,7.28-3.58,3.45-7.01,7.7-10.34,11.8-8.31,10.27-16.9,20.89-28.78,20.89-3.11,0-6.43-.73-9.88-2.18,7.28-10.26,9.63-18.89,6.8-25.05-2.64-5.75-9.52-9.02-20.45-9.71-.99-.06-1.97-.09-2.92-.09-16.3,0-23.96,9.09-31.37,17.87-5.58,6.61-10.84,12.85-19.7,15.6-5.44,1.68-10.27,1.82-15.15,1.82-.6,0-1.2,0-1.8,0-.61,0-1.22,0-1.84,0-2.3,0-4.8.03-7.48.25-2.64.21-5.88.62-9.31,1.06-7.05.89-15.03,1.9-22.34,1.9-7.71,0-13.18-1.18-16.28-3.51-8.25-6.21-10.44-24.52-6.12-34.18,1.96-4.37,6.61-7.69,11.54-11.2,4.94-3.52,10.04-7.16,13.08-12.31,3.07-5.21,3.76-10.72,4.43-16.05.47-3.72.91-7.23,2.11-10.52,5.85-15.92,31.38-18.18,53.92-20.18,9.55-.85,18.57-1.64,25.02-3.5,5.73-1.65,11.82-3.98,13.48-8.77.97-2.79.23-5.9-2.18-9.26-5.04-7.02-15.48-7.86-19.73-7.89-1.61-.01-3.21-.02-4.81-.02-23.15,0-45.88,1.39-66.99,2.89-4.91.35-11.21.55-17.89.76-19.4.61-43.55,1.36-55.72,6.41-7.66,3.18-11.87,7.19-12.18,11.59-.28,3.98,2.57,7.77,8.48,11.26,3.6,2.13,6.84,3.5,9.69,4.72,8.36,3.55,12.18,5.17,11.4,19.9-.72,13.67-8.04,22.33-15.11,30.7-6.49,7.69-12.63,14.95-12.89,25.26-.08,3.18.19,6.21.43,8.88.83,9.4,1.29,14.57-12.26,16.64-2.23.34-5.13.51-8.87.51s-7.52-.14-11.68-.3c-4.44-.16-9.02-.33-13.49-.33-18.5,0-24.38,3.38-27.44,6.32-3.51,3.37-4.88,6.85-4.09,10.33,1.6,7.07,11.78,10.94,14.86,11.96,14.64,4.85,31.63,7.21,51.92,7.21,16.53,0,33.19-1.5,49.29-2.96,6.54-.59,12.72-1.15,18.88-1.61,16.29-1.22,33.96-1.81,54.02-1.81,19.07,0,38.44.53,57.17,1.04,18.79.51,38.21,1.04,57.4,1.04,16.61,0,31.42-.4,45.28-1.21,3.97-.23,8.27-.81,12.43-1.37,5.43-.73,11.05-1.49,15.99-1.49h.31c9.07.06,18.36,3.23,27.35,6.29,6.55,2.23,13.32,4.54,19.99,5.64,4.18.69,8.34,1.02,12.71,1.02,10.54,0,20.19-1.94,30.4-4,5.75-1.16,11.7-2.36,17.82-3.17,10.75-1.43,22.65-2.1,37.46-2.1,7.47,0,15.08.16,22.44.32,7.36.16,14.98.32,22.45.32s13.77-.16,19.7-.48c6.19-.34,12.36-1.4,18.33-2.43,7.05-1.22,14.34-2.48,21.51-2.48,1.55,0,3.07.06,4.53.18,10.94.87,22.17,5.38,33.03,9.73,7.63,3.06,15.52,6.22,23.23,8.09,6.62,1.61,13.33,2.39,20.51,2.39,16.91,0,33.46-4.48,49.46-8.81,15.72-4.25,31.97-8.65,48.28-8.65,5.05,0,9.99.42,14.7,1.26,6.13,1.09,12.19,3.29,18.05,5.43,8.29,3.01,16.85,6.13,26.23,6.45.43.01.86.02,1.3.02,12.65,0,29.01-6.14,34.41-17.52,2.3-4.85,3.42-12.63-4.33-22.14-11.02-13.51-27.24-15.07-38.48-15.07-2.94,0-6.11.12-9.7.37-2.09.15-4.81.62-7.96,1.17-4.83.84-10.31,1.79-14.91,1.79-3.65,0-6.15-.6-7.43-1.8-1.89-1.76-3.22-7.72-4.29-12.52-.71-3.17-1.38-6.16-2.21-8.21-4.41-10.82-16.83-16.1-26.81-20.34-6.84-2.91-13.29-5.65-14.37-9.05-1.47-4.63,2.08-7.47,8.1-11.6,2.94-2.02,5.99-4.11,7.92-6.7,4.22-5.66,5.58-11.73,4.05-18.04-4.23-17.4-28.74-30.14-33.62-32.51-16.79-8.19-28.54-8.86-41.08-8.86-1.75,0-3.52.02-5.34.03-1.91.02-3.86.03-5.89.03-4.55,0-8.41-.09-12.15-.29-6.33-.33-12.84-1.37-19.13-2.36-7.84-1.25-15.96-2.53-24.02-2.53h0ZM838.05,322.26c-2.46,0-4.77-.08-6.49-.22-13.55-1.11-21.7-5.33-21.8-11.3-.12-7.16,10.98-16.11,27.69-18.03,1.45-.17,3.21-.25,5.09-.25,11.7,0,26.54,3.15,31.47,10.05,1.96,2.74,2.29,5.9,1.01,9.65-2.38,6.97-20.28,10.09-36.97,10.09h0ZM546.89,353.76c-4.69,0-9.53-.78-12.04-1.93-2.08-.96-4.5-2.72-4.16-5.68.35-3.12,3.54-6.08,7.41-6.88.21-.04.7-.11,1.66-.11,3.32,0,8.82.8,13.39,1.95,6.58,1.66,8.54,3.28,8.75,3.76.57,1.87.41,3.39-.51,4.62-1.94,2.63-7.5,4.26-14.51,4.26h0ZM865.29,418.28c-12.75,0-24.57-4.24-35.99-8.34-7.94-2.85-16.14-5.79-24.7-7.37-3.17-.58-7.51-.9-12.12-1.23-11.06-.81-26.2-1.91-30.13-7.58-1.97-2.85-1.15-4.75.6-8.13,1.04-2.01,2.21-4.29,2.3-6.98.1-2.84-1.09-5.57-2.24-8.2-1.03-2.37-2-4.6-1.86-6.49.13-1.63,3.22-6.77,4.81-8.3,5.07-4.89,13.92-7.36,26.3-7.36,13.01,0,26.97,2.64,38.91,5.22l1.98.42c5.94,1.27,12.68,2.71,18.01,5.07,10.55,4.68,32.62,25.12,40.1,33.98,3.91,4.63,5.09,8.91,3.49,12.7-2.99,7.13-14.88,11.65-25.07,12.43-1.45.11-2.93.17-4.4.17h0ZM552.58,414.93c-16.66,0-41.69-6.62-50.99-16.12-2.36-2.41-3.17-4.57-2.48-6.6,1.59-4.63,10.64-8.23,16.57-9.04,1.82-.25,4.24-.37,7.2-.37,13.34,0,33.44,2.53,41.36,5.22,8.92,3.02,14.07,7.96,13.76,13.23-.34,5.74-7.01,10.82-17,12.94-2.34.5-5.17.75-8.42.75h0Z"/>
  </g>
  <path class="cls-3" d="M602.46,249.94c-8.46-.9-23.65-6.16-17.17-17,5.41-9.06,26.91-10.1,36.84-13.4"/>
  <path class="cls-3" d="M768.32,76.21c13.55,11.9,38.4,8.34,55.58,13.27,16.34,4.69,36.45,22.72,50.94,23.56l-38.63,20.03c-8.07-8.73-33.47-18.92-55.38-24.42l-12.51-32.44Z"/>
  <path class="cls-2" d="M341.92,395.6c22.39-6.94,23.39-35.17,53.27-33.29,25.36,1.6,23.23,16.97,10.71,33.55,26.41,13.16,38.31-15.26,53.45-29.86"/>
  <path class="cls-2" d="M506.82,425.65c-8.98-.06-19.69,2.32-28.86,2.86-71.82,4.23-142.21-4.42-213.89.95"/>
  <path class="cls-5" d="M602.36,408.23l-10.4-28.73h-52.01l-9.91,28.73h72.32ZM519.39,441.92l46.81-125.33,46.07,125.33h34.92l-69.35-172.63h-24.02l-69.35,172.63h34.92ZM479.76,441.92v-28.73h-73.56v-143.9h-31.95v172.63h105.51Z"/>
  <path class="cls-5" d="M697.96,367.12h35.91c8.09,0,14.32,1.98,18.7,5.94,4.37,3.96,6.56,9.58,6.56,16.84l31.95,1.49c0-10.57-2.31-19.44-6.94-26.62-4.62-7.18-11.73-12.59-21.3-16.22,5.94-3.47,10.57-8.3,13.87-14.49,3.3-6.19,4.95-13.25,4.95-21.18,0-13.7-4.87-24.4-14.61-32.08-9.74-7.68-23.2-11.52-40.37-11.52h-60.68l31.95,57.33v-27.86h28.73c7.43,0,13.13,1.65,17.09,4.95,3.96,3.3,5.94,8.01,5.94,14.12,0,6.44-2.61,10.94-6.49,14.65l-21.39,12.8-23.89,21.84Z"/>
  <path class="cls-3" d="M500.17,400.18c11.45,11.71,45.55,19.26,61.25,15.93l-6.95,21.47c-15.62-2.58-31.55-11.86-47.65-11.96-6.63-.04-14.22,1.01-21.42,1.91l14.76-27.35Z"/>
  <path class="cls-3" d="M362.67,263.34c6.32.05,14.27,1.7,18.12,7.06,6.48,9.01-2.54,12.73-10.23,14.94"/>
  <path class="cls-1" d="M874.84,113.04c14.85.86,25.49-14.74,36.39-22.23,18.1-12.43,41.16-10.45,62.03-13.33l2.45,21.1c-22.48,6.36-27.83,26.51-46.95,34.04-8.04,3.17-19.77,4.25-26.54,9.75l-27.38-29.33Z"/>
</svg>